<?xml version="1.0" encoding="UTF-8" standalone="no"?>
<svg
   viewBox="0 0 1595.48 6844.06"
   version="1.1"
   id="svg73"
   sodipodi:docname="background-image.svg"
   inkscape:version="1.3 (0e150ed6c4, 2023-07-21)"
   width="1595.48"
   height="6844.0601"
   xmlns:inkscape="http://www.inkscape.org/namespaces/inkscape"
   xmlns:sodipodi="http://sodipodi.sourceforge.net/DTD/sodipodi-0.dtd"
   xmlns:xlink="http://www.w3.org/1999/xlink"
   xmlns="http://www.w3.org/2000/svg"
   xmlns:svg="http://www.w3.org/2000/svg">
  <script
     src="https://cdn.jsdelivr.net/npm/kute.js@2.2.2/dist/kute.min.js"
     id="script886" />
  <script
     id="script888">&#10;      const tween1 = KUTE.fromTo(&#10;      '#path61',&#10;      { path: '#path61' },&#10;      { path: '#path62' },&#10;      { repeat: 999, duration: 4000, yoyo: true }&#10;      ).start();&#10;      const tween2 = KUTE.fromTo(&#10;      '#path63',&#10;      { path: '#path63' },&#10;      { path: '#path64' },&#10;      { repeat: 999, duration: 4000, yoyo: true }&#10;      ).start();&#10;   </script>
  <sodipodi:namedview
     id="namedview75"
     pagecolor="#ffffff"
     bordercolor="#666666"
     borderopacity="1.0"
     inkscape:showpageshadow="2"
     inkscape:pageopacity="0.0"
     inkscape:pagecheckerboard="0"
     inkscape:deskcolor="#d1d1d1"
     showgrid="false"
     inkscape:zoom="0.092416813"
     inkscape:cx="5.410271"
     inkscape:cy="3830.4718"
     inkscape:window-width="1350"
     inkscape:window-height="1040"
     inkscape:window-x="414"
     inkscape:window-y="0"
     inkscape:window-maximized="0"
     inkscape:current-layer="svg73" />
  <defs
     id="defs58">
    <style
       id="style2">&#10;         .cls-1,&#10;         .cls-2,&#10;         .cls-3,&#10;         .cls-4,&#10;         .cls-5,&#10;         .cls-6 {&#10;            fill: none;&#10;            stroke-miterlimit: 10;&#10;            stroke-width: 2px;&#10;         }&#10;&#10;         .cls-1 {&#10;            stroke: url(#linear-gradient);&#10;         }&#10;&#10;         .cls-2 {&#10;            stroke: url(#linear-gradient-2);&#10;         }&#10;&#10;         .cls-3 {&#10;            stroke: url(#linear-gradient-3);&#10;         }&#10;&#10;         .cls-4 {&#10;            stroke: url(#linear-gradient-4);&#10;         }&#10;&#10;         .cls-5 {&#10;            stroke: url(#linear-gradient-5);&#10;         }&#10;&#10;         .cls-6 {&#10;            stroke: url(#linear-gradient-6);&#10;         }&#10;      </style>
    <linearGradient
       id="linear-gradient"
       x1="76.150002"
       y1="1550.12"
       x2="504.07001"
       y2="1550.12"
       gradientUnits="userSpaceOnUse">
      <stop
         offset="0"
         stop-color="#29abe2"
         id="stop4" />
      <stop
         offset="0.25"
         stop-color="aqua"
         id="stop6" />
      <stop
         offset="0.49"
         stop-color="#fff"
         id="stop8" />
      <stop
         offset="0.75"
         stop-color="#7bd2d8"
         id="stop10" />
      <stop
         offset="1"
         stop-color="#fcee21"
         id="stop12" />
    </linearGradient>
    <linearGradient
       id="linear-gradient-2"
       x1="193.39"
       y1="1597"
       x2="834.06"
       y2="1597"
       gradientUnits="userSpaceOnUse">
      <stop
         offset="0"
         stop-color="#af7ae2"
         id="stop15" />
      <stop
         offset="0.25"
         stop-color="#cdb3ff"
         id="stop17" />
      <stop
         offset="0.49"
         stop-color="#6da6ff"
         id="stop19" />
      <stop
         offset="0.75"
         stop-color="#ccfbd8"
         id="stop21" />
      <stop
         offset="1"
         stop-color="#6caeed"
         id="stop23" />
    </linearGradient>
    <linearGradient
       id="linear-gradient-3"
       x1="418.75"
       y1="1529"
       x2="1473.23"
       y2="1529"
       gradientUnits="userSpaceOnUse">
      <stop
         offset="0"
         stop-color="#c7abe2"
         id="stop26" />
      <stop
         offset="0.25"
         stop-color="#66e178"
         id="stop28" />
      <stop
         offset="0.49"
         stop-color="#8cffff"
         id="stop30" />
      <stop
         offset="0.75"
         stop-color="#7bd2d8"
         id="stop32" />
      <stop
         offset="1"
         stop-color="#fc5821"
         id="stop34" />
    </linearGradient>
    <linearGradient
       id="linear-gradient-4"
       x1="455.64999"
       y1="1529.8101"
       x2="1477.87"
       y2="1529.8101"
       gradientUnits="userSpaceOnUse">
      <stop
         offset="0"
         stop-color="#36abe2"
         id="stop37" />
      <stop
         offset="0.49"
         stop-color="#7af"
         id="stop39" />
      <stop
         offset="0.75"
         stop-color="#7badcb"
         id="stop41" />
      <stop
         offset="1"
         stop-color="#69eeff"
         id="stop43" />
    </linearGradient>
    <linearGradient
       id="linear-gradient-5"
       x1="874.67999"
       y1="1580.77"
       x2="1554.03"
       y2="1580.77"
       gradientUnits="userSpaceOnUse">
      <stop
         offset="0"
         stop-color="#413ae2"
         id="stop46" />
      <stop
         offset="0.25"
         stop-color="#8e64d7"
         id="stop48" />
      <stop
         offset="0.49"
         stop-color="#287eff"
         id="stop50" />
      <stop
         offset="0.75"
         stop-color="#385ccb"
         id="stop52" />
      <stop
         offset="1"
         stop-color="#defff7"
         id="stop54" />
    </linearGradient>
    <linearGradient
       id="linear-gradient-6"
       x1="1017.45"
       y1="1380.96"
       x2="1500.4"
       y2="1380.96"
       xlink:href="#linear-gradient-4" />
    <linearGradient
       inkscape:collect="always"
       xlink:href="#linear-gradient-4"
       id="linearGradient523"
       gradientUnits="userSpaceOnUse"
       x1="455.64999"
       y1="1529.8101"
       x2="1477.87"
       y2="1529.8101"
       gradientTransform="matrix(0.6087977,0,0,1.0301059,586.00087,-229.83879)" />
    <linearGradient
       inkscape:collect="always"
       xlink:href="#linear-gradient"
       id="linearGradient1038"
       gradientUnits="userSpaceOnUse"
       x1="76.150002"
       y1="1550.12"
       x2="504.07001"
       y2="1550.12" />
    <linearGradient
       inkscape:collect="always"
       xlink:href="#linear-gradient-2"
       id="linearGradient1040"
       gradientUnits="userSpaceOnUse"
       x1="193.39"
       y1="1597"
       x2="834.06"
       y2="1597" />
    <linearGradient
       inkscape:collect="always"
       xlink:href="#linear-gradient"
       id="linearGradient1"
       gradientUnits="userSpaceOnUse"
       x1="76.150002"
       y1="1550.12"
       x2="504.07001"
       y2="1550.12" />
    <linearGradient
       inkscape:collect="always"
       xlink:href="#linear-gradient-2"
       id="linearGradient2"
       gradientUnits="userSpaceOnUse"
       x1="193.39"
       y1="1597"
       x2="834.06"
       y2="1597" />
    <linearGradient
       inkscape:collect="always"
       xlink:href="#linear-gradient"
       id="linearGradient3"
       gradientUnits="userSpaceOnUse"
       x1="76.150002"
       y1="1550.12"
       x2="504.07001"
       y2="1550.12" />
    <linearGradient
       inkscape:collect="always"
       xlink:href="#linear-gradient-2"
       id="linearGradient4"
       gradientUnits="userSpaceOnUse"
       x1="193.39"
       y1="1597"
       x2="834.06"
       y2="1597" />
  </defs>
  <g
     id="Layer_3"
     data-name="Layer 3"
     transform="matrix(0.65460654,0,0,2.2562676,27.116137,-171.87288)">
    <path
       class="cls-1"
       d="m 360.64,2960.77 c -55.39,-16.17 -113.58,-21.31 -170.07,-26.44 6.85,-113 -20.54,-224.23 -17.12,-337.2 0,-36 0,-73.61 6.25,-110.3 1.72,-17.3 1.72,-33.11 1.72,-49.2 v -611.24 c -1.12,-9.79 0.59,-20.06 2.3,-30.33 8.56,-34.23 32.53,-63.33 22.26,-99.28 -30.81,-119.82 -59.91,-241.35 -26.51,-361.19 1.95,-23.18 1.95,-43.64 1.95,-64 V 916.16 c 22.84,-73.51 127.26,-47.83 166.63,-99.18 53.06,-70.18 -44.51,-179.73 -113,-205.4 -61.62,-24 -116.39,-68.47 -138.64,-130.09 -42.79,-114.68 -8.56,-237.92 46.21,-340.62 18.83,59.9 5.14,114.68 -10.27,174.59 -6.84,25.67 -1.71,49.64 6.85,73.6 5.14,13.69 20.54,22.25 34.23,13.69 39.37,-24 77,-63.33 126.67,-51.35 18.83,6.85 29.1,27.39 30.81,44.51 3.42,155.76 70.18,285.85 147.2,419.36 13.7,24 8.56,53.06 -17.11,70.18 -49.64,34.23 -111.26,37.65 -144.95,87.89 v 176.89 c 0,20 0,40.17 -7.1,66.55 -60.2,112 -101.28,245.5 -43.09,367 44.53,95.88 130.14,148.95 219.14,203.72 30.81,18.83 18.83,49.64 -10.27,59.91 -49.66,18.83 -102.73,17.12 -147.43,45.59 -10.29,14.47 -11.23,33.77 -11.23,53.57 v 442 c -7.39,64.84 -33.07,124.75 -38.2,191.51 -10.27,116.39 59.91,208.82 90.72,316.66 5.13,17.12 1.71,32.52 -1.9,49.58 -3.4,9.86 -6.05,14.45 -6.05,14.45 z"
       id="path61"
       style="stroke:url(#linearGradient1)" />
  </g>
  <g
     id="g926"
     data-name="Layer 3"
     transform="matrix(0.65460654,0,0,2.2562676,27.116137,-171.87288)">
    <path
       class="cls-2"
       d="m 833.05,2903.6 c -50.24,106 -166.63,162.53 -281.31,152.26 17.11,-15.41 10.27,-39.37 -1.72,-58.2 C 486.69,2903.52 409.67,2833.34 361.74,2734.06 307,2616 360,2492.71 416.8,2388.5 c 1,-16.65 1,-33.57 1,-50.74 v -332.22 c 0,-19.53 0,-39.21 3.17,-58.13 62.3,-48.65 147.88,-45.23 216.35,-76 49.64,-22.25 -13.69,-77 -41.08,-102.7 -66.76,-68.46 -143.78,-113 -225.94,-160.9 C 253.9,1541 267.6,1380.12 339.49,1274 c 27.38,-41.08 51.35,-77 71.24,-119.14 6.78,-24.54 7.07,-44.58 7.07,-64.38 v -59 c 7.27,-70.72 110,-67.3 135.65,-120.36 C 598,820.4 478.13,743.38 437.05,659.5 380.57,543.11 431.92,431.85 471.29,322.3 486.69,284.65 428.49,260.68 392.55,252.12 327.51,235 271,272.66 211.11,274.38 c -25.67,1.71 -17.12,-44.51 -5.13,-53.07 44.5,-35.94 97.56,-58.19 148.91,-83.87 1.71,8.56 10.27,12 17.12,15.41 68.47,20.54 143.78,25.67 200.27,75.31 41.08,37.66 101,102.7 58.19,157.48 C 580.83,449 478.13,483.2 488.4,572.21 507.23,714.28 621.91,805 697.23,926.53 c 8.56,15.4 1.71,32.52 -12,42.79 -42.8,35.94 -113,32.52 -131.8,90.72 -25.68,85.58 -82.16,148.91 -135.23,219.09 -20.54,27.39 -39.36,54.78 -32.52,89 5.14,34.23 47.93,32.52 68.47,53.06 56.49,63.33 75.31,142.07 118.11,215.67 47.92,77 104.41,136.94 164.32,203.69 6.84,8.56 12,20.54 15.4,30.81 17.12,51.35 41.08,95.86 61.62,143.78 -30.81,-27.38 -46.21,-78.73 -90.72,-83.87 -61.62,-5.13 -148.91,6.85 -170.45,74.26 v 332.22 c 0,17.17 0,34.09 -6.19,50.84 -4.79,11.68 -13.35,22 -23.62,30.51 -87.3,65 -160.9,169.46 -119.82,272.16 49.64,119.81 169.46,265.31 318.37,232.79 39.37,-8.56 77,-94.15 109.47,-47.26 1.83,17.37 2.41,26.81 2.41,26.81 z"
       id="path63"
       style="stroke:url(#linearGradient2)" />
  </g>
  <g
     style="visibility:hidden"
     id="g929"
     data-name="Layer 3"
     transform="matrix(0.65460654,0,0,2.2562676,27.116137,-171.87288)">
    <path
       class="cls-1"
       d="m 360.64,2960.77 c -55.39,-16.17 -113.58,-21.31 -170.07,-26.44 47.75927,-113 -102.358538,-224.23 -98.938538,-337.2 0,-36 81.818538,-73.61 88.068538,-110.3 1.72,-17.3 1.72,-33.11 1.72,-49.2 v -611.24 c -1.12,-9.79 170.07126,5.3734 171.78126,-4.8966 8.56,-34.23 -136.95126,-88.7634 -147.22126,-124.7134 -30.81,-119.82 -59.91,-241.35 -26.51,-361.19 1.95,-23.18 1.95,-43.64 1.95,-64 V 916.16 C 204.26,842.65 145.04292,858.15663 184.41292,806.80663 237.47292,736.62663 303.54,637.25 235.05,611.58 173.43,587.58 118.66,543.11 96.41,481.49 53.62,366.81 87.85,243.57 142.62,140.87 c 18.83,59.9 5.14,114.68 -10.27,174.59 -6.84,25.67 -1.71,49.64 6.85,73.6 5.14,13.69 20.54,22.25 34.23,13.69 39.37,-24 135.44181,-105.71902 185.11181,-93.73902 18.83,6.85 -29.34181,69.77902 -27.63181,86.89902 3.42,155.76 70.18,285.85 147.2,419.36 13.7,24 -90.79108,8.97541 -116.46108,26.09541 C 312.00892,875.59541 349.74,923.1 316.05,973.34 v 176.89 c 0,20 134.41617,58.8212 127.31617,85.2012 -60.2,112 -235.69617,226.8488 -177.50617,348.3488 178.94617,106.0534 130.14,148.95 219.14,203.72 30.81,18.83 18.83,49.64 -10.27,59.91 -49.66,18.83 -102.73,17.12 -147.43,45.59 -10.29,14.47 6.28856,34.4335 -11.23,53.57 -235.760164,257.5344 -13.0941,300.7872 0,442 -7.39,64.84 -33.07,124.75 -38.2,191.51 -10.27,116.39 59.91,208.82 90.72,316.66 5.13,17.12 1.71,32.52 -1.9,49.58 -3.4,9.86 -6.05,14.45 -6.05,14.45 z"
       id="path62"
       style="stroke:url(#linearGradient3)"
       sodipodi:nodetypes="ccccsccccscccccccccccccscccccsccccc" />
  </g>
  <g
     style="visibility:hidden"
     id="g932"
     data-name="Layer 3"
     transform="matrix(0.65460654,0,0,2.2562676,27.116137,-171.87288)">
    <path
       class="cls-2"
       d="m 833.05,2903.6 c -50.24,106 -166.63,162.53 -281.31,152.26 17.11,-15.41 -65.70436,-35.9789 -77.69436,-54.8089 C 410.71564,2906.9111 409.67,2833.34 361.74,2734.06 307,2616 360,2492.71 416.8,2388.5 c 1,-16.65 1,-33.57 1,-50.74 v -332.22 c 0,-19.53 0,-39.21 3.17,-58.13 62.3,-48.65 147.88,-45.23 216.35,-76 49.64,-22.25 -13.69,-77 -41.08,-102.7 -66.76,-68.46 -143.78,-113 -225.94,-160.9 C 253.9,1541 267.6,1380.12 339.49,1274 c 27.38,-41.08 51.35,-77 71.24,-119.14 6.78,-24.54 7.07,-44.58 7.07,-64.38 v -59 c 7.27,-70.72 110,-67.3 135.65,-120.36 C 598,820.4 478.13,743.38 437.05,659.5 380.57,543.11 431.92,431.85 471.29,322.3 486.69,284.65 428.49,260.68 392.55,252.12 327.51,235 271,272.66 211.11,274.38 c -25.67,1.71 -17.12,-44.51 -5.13,-53.07 44.5,-35.94 97.56,-58.19 148.91,-83.87 1.71,8.56 10.27,12 17.12,15.41 68.47,20.54 143.78,25.67 200.27,75.31 41.08,37.66 101,102.7 58.19,157.48 -49.64,63.36 22.98544,99.25556 33.25544,188.26556 C 682.55544,715.97556 621.91,805 697.23,926.53 c 8.56,15.4 -85.95272,30.82444 -99.66272,41.09444 -42.8,35.93996 -25.33728,34.21556 -44.13728,92.41556 -25.68,85.58 40.56781,148.91 -12.50219,219.09 -20.54,27.39 -162.08781,54.78 -155.24781,89 5.14,34.23 47.93,32.52 68.47,53.06 56.49,63.33 320.76561,153.9389 363.56561,227.5389 47.92,77 -141.04561,125.0711 -81.13561,191.8211 6.84,8.56 12,20.54 15.4,30.81 17.12,51.35 41.08,95.86 61.62,143.78 -30.81,-27.38 -46.21,-78.73 -90.72,-83.87 -61.62,-5.13 -148.91,6.85 -170.45,74.26 l 222.07889,310.1777 C 786.54521,2332.5188 552.43,2371.84 546.24,2388.59 c -4.79,11.68 -13.35,22 -23.62,30.51 -87.3,65 -160.9,169.46 -119.82,272.16 49.64,119.81 169.46,265.31 318.37,232.79 39.37,-8.56 77,-94.15 109.47,-47.26 1.83,17.37 2.41,26.81 2.41,26.81 z"
       id="path64"
       style="stroke:url(#linearGradient4)"
       sodipodi:nodetypes="cccccssccccccsccccccccccccccccccccccccscccccc" />
  </g>
  <g
     id="Layer_3-0"
     data-name="Layer 3"
     transform="matrix(1.4268457,0,0,2.2348666,-577.97996,431.16405)">
    <path
       class="cls-1"
       d="m 360.64,2960.77 c -55.39,-16.17 -113.58,-21.31 -170.07,-26.44 6.85,-113 -20.54,-224.23 -17.12,-337.2 0,-36 0,-73.61 6.25,-110.3 1.72,-17.3 1.72,-33.11 1.72,-49.2 v -611.24 c -1.12,-9.79 0.59,-20.06 2.3,-30.33 8.56,-34.23 32.53,-63.33 22.26,-99.28 -30.81,-119.82 -59.91,-241.35 -26.51,-361.19 1.95,-23.18 1.95,-43.64 1.95,-64 V 916.16 c 22.84,-73.51 127.26,-47.83 166.63,-99.18 53.06,-70.18 -44.51,-179.73 -113,-205.4 -61.62,-24 -116.39,-68.47 -138.64,-130.09 -42.79,-114.68 -8.56,-237.92 46.21,-340.62 18.83,59.9 5.14,114.68 -10.27,174.59 -6.84,25.67 -1.71,49.64 6.85,73.6 5.14,13.69 20.54,22.25 34.23,13.69 39.37,-24 77,-63.33 126.67,-51.35 18.83,6.85 29.1,27.39 30.81,44.51 3.42,155.76 70.18,285.85 147.2,419.36 13.7,24 8.56,53.06 -17.11,70.18 -49.64,34.23 -111.26,37.65 -144.95,87.89 v 176.89 c 0,20 0,40.17 -7.1,66.55 -60.2,112 -101.28,245.5 -43.09,367 44.53,95.88 130.14,148.95 219.14,203.72 30.81,18.83 18.83,49.64 -10.27,59.91 -49.66,18.83 -102.73,17.12 -147.43,45.59 -10.29,14.47 -11.23,33.77 -11.23,53.57 v 442 c -7.39,64.84 -33.07,124.75 -38.2,191.51 -10.27,116.39 59.91,208.82 90.72,316.66 5.13,17.12 1.71,32.52 -1.9,49.58 -3.4,9.86 -6.05,14.45 -6.05,14.45 z"
       id="path468"
       style="display:none;fill:none;stroke:url(#linearGradient1038);stroke-width:2px;stroke-miterlimit:10" />
    <path
       class="cls-2"
       d="m 833.05,2903.6 c -50.24,106 -166.63,162.53 -281.31,152.26 17.11,-15.41 10.27,-39.37 -1.72,-58.2 C 486.69,2903.52 409.67,2833.34 361.74,2734.06 307,2616 360,2492.71 416.8,2388.5 c 1,-16.65 1,-33.57 1,-50.74 v -332.22 c 0,-19.53 0,-39.21 3.17,-58.13 62.3,-48.65 147.88,-45.23 216.35,-76 49.64,-22.25 -13.69,-77 -41.08,-102.7 -66.76,-68.46 -143.78,-113 -225.94,-160.9 C 253.9,1541 267.6,1380.12 339.49,1274 c 27.38,-41.08 51.35,-77 71.24,-119.14 6.78,-24.54 7.07,-44.58 7.07,-64.38 v -59 c 7.27,-70.72 110,-67.3 135.65,-120.36 C 598,820.4 478.13,743.38 437.05,659.5 380.57,543.11 431.92,431.85 471.29,322.3 486.69,284.65 428.49,260.68 392.55,252.12 327.51,235 271,272.66 211.11,274.38 c -25.67,1.71 -17.12,-44.51 -5.13,-53.07 44.5,-35.94 97.56,-58.19 148.91,-83.87 1.71,8.56 10.27,12 17.12,15.41 68.47,20.54 143.78,25.67 200.27,75.31 41.08,37.66 101,102.7 58.19,157.48 C 580.83,449 478.13,483.2 488.4,572.21 507.23,714.28 621.91,805 697.23,926.53 c 8.56,15.4 1.71,32.52 -12,42.79 -42.8,35.94 -113,32.52 -131.8,90.72 -25.68,85.58 -82.16,148.91 -135.23,219.09 -20.54,27.39 -39.36,54.78 -32.52,89 5.14,34.23 47.93,32.52 68.47,53.06 56.49,63.33 75.31,142.07 118.11,215.67 47.92,77 104.41,136.94 164.32,203.69 6.84,8.56 12,20.54 15.4,30.81 17.12,51.35 41.08,95.86 61.62,143.78 -30.81,-27.38 -46.21,-78.73 -90.72,-83.87 -61.62,-5.13 -148.91,6.85 -170.45,74.26 v 332.22 c 0,17.17 0,34.09 -6.19,50.84 -4.79,11.68 -13.35,22 -23.62,30.51 -87.3,65 -160.9,169.46 -119.82,272.16 49.64,119.81 169.46,265.31 318.37,232.79 39.37,-8.56 77,-94.15 109.47,-47.26 1.83,17.37 2.41,26.81 2.41,26.81 z"
       id="path470"
       style="display:none;fill:none;stroke:url(#linearGradient1040);stroke-width:2px;stroke-miterlimit:10" />
    <path
       class="cls-3"
       d="m 934,2751.53 c -16,-17.47 -31.35,-41.43 -53.6,-43.15 -13.7,0 -18.83,17.12 -17.12,30.81 -25.67,-42.79 -66.75,-80.44 -118.1,-78.73 -15.41,0 -12,22.25 -6.85,32.52 22.25,61.62 34.23,157.47 -42.79,178 -130.09,32.53 -270.45,-109.54 -275.58,-232.78 -5.14,-101 99.27,-162.61 184.86,-203.69 20.54,-8.56 39.37,-24 49.38,-46 v -324.83 c 0,-19.23 0,-38.61 1.58,-57.92 26.06,-26.55 77.41,-53.94 104.8,-21.42 58.2,66.76 121.53,114.69 184.86,171.17 17.12,17.12 34.24,39.37 34.24,61.62 5.13,94.14 20.54,184.86 51.35,275.58 5.13,13.7 -6.85,34.24 -22.26,44.51 -27.38,20.54 -59.9,30.81 -94.14,24 -75.31,-12 -143.78,-61.62 -220.81,-51.35 65.05,8.56 123.25,32.52 179.73,73.6 66.76,47.93 118.11,97.57 186.57,143.78 75.32,49.64 123.25,116.4 183.15,179.73 47.93,47.93 121.53,95.85 186.58,44.5 25.67,-22.25 51.35,-53.06 39.37,-87.29 -5.14,-15.41 -18.83,-46.22 -24,-37.66 -24,30.81 -5.13,85.58 -47.92,109.55 -39.37,22.25 -82.17,5.13 -114.69,-17.12 27.39,18.83 61.62,30.81 95.86,24 42.79,-10.27 73.6,-58.19 58.19,-102.7 -5.13,-15.4 18.83,-12 24,-3.42 29.1,53.06 -6.85,116.39 -63.33,131.8 -65,18.83 -118.11,-25.68 -159.19,-68.47 -82.16,-83.87 -157.48,-160.9 -255,-232.79 -90.72,-65 -171.17,-135.22 -279,-155.76 70.18,-5.13 130.09,32.52 198.56,47.93 51.35,12 128.38,-3.43 123.24,-54.78 -8.56,-102.7 -37.66,-202 -42.79,-308.1 -1.71,-22.25 -22.25,-44.5 -41.08,-61.62 -89,-89 -160.9,-183.15 -191.71,-309.81 -1.71,-10.27 -6.85,-20.54 -15.4,-27.39 -101,-113 -159.19,-261.89 -118.11,-412.51 5.13,-20.54 3.42,-42.8 -12,-58.2 -22.25,-24 -71.89,-30.81 -63.33,-63.33 17.11,-77 47.92,-157.48 121.52,-198.56 12,-6.84 37.66,-20.54 41.08,-3.42 12,53.06 24,126.66 92.44,113 -37.66,-13.69 -82.17,-46.22 -61.62,-85.58 C 810.25,948.89 693.85,851.32 627.1,738.35 594.58,685.29 560.34,628.8 570.61,567.18 c 13.7,-77 114.69,-101 147.21,-167.74 C 784.57,260.79 615.12,164.94 510.71,101.61 574,96.36 647.59,69 693.8,94.65 c 104.42,61.62 195.14,196.84 143.79,323.51 -27.39,65 -125,80.45 -140.36,157.47 C 675,704 748.58,817 789.66,933.37 c 5.13,10.27 1.71,22.25 0,34.24 -12,46.21 -44.5,90.72 -27.39,133.51 25.68,61.62 116.4,34.23 166,10.27 34.24,-17.12 61.63,-66.76 104.42,-44.51 22.25,12 24,46.22 8.56,63.34 -89,90.71 -224.23,71.89 -340.63,65 0,10.27 6.85,17.12 12,25.67 39.37,49.64 143.78,82.17 111.26,145.5 -49.64,99.27 -150.63,198.55 -101,315 29.1,68.46 49.64,133.51 68.47,207.11 13.69,53.06 39.37,97.57 73.6,138.65 47.93,53.06 109.55,97.56 121.53,167.74 13.7,92.43 0,184.86 42.79,273.87 30.81,61.62 -47.92,102.7 -99.27,95.85 -80.45,-8.56 -157.48,-59.91 -241.35,-54.77 65,12 126.66,30.81 181.44,71.89 73.6,54.77 136.93,106.12 210.53,160.9 65,47.92 106.13,107.83 162.61,162.61 37.66,35.94 80.45,73.6 136.94,65 39.37,-5.13 78.74,-32.52 85.58,-73.6 3.43,-22.25 3.43,-47.93 -13.69,-63.33 24,49.64 -1.71,101 -47.93,126.66 -66.75,34.23 -126.66,-24 -169.45,-68.47 -82.17,-85.58 -162.61,-159.18 -260.18,-231.07 -85.58,-63.33 -162.61,-128.38 -263.6,-148.92 71.89,1.71 135.22,39.37 205.4,53.06 46.22,8.56 102.7,-5.13 130.09,-47.92 18.83,-30.81 1.71,-58.2 -13.69,-83.88 18.83,24 37.65,59.91 20.54,85.59 -65,89 -181.44,35.94 -267,5.13 -17.12,-6.84 -36,-13.69 -54.78,-12 94.14,30.81 176.3,87.3 246.48,157.48 -56.48,-61.62 -130.08,-102.71 -200.26,-145.5 121.53,61.62 277.29,66.76 376.57,-41.08 -39.37,65 -133.51,87.3 -207.12,94.14 -47.92,5.14 -89,-30.81 -135.22,-37.65 58.2,30.81 104.41,73.6 159.19,114.68 85.58,61.62 160.89,118.11 232.79,191.71 51.35,53.06 123.24,133.51 203.69,83.87 27.38,-17.12 39.36,-58.2 17.11,-85.58 -12,-13.7 10.27,-27.39 20.54,-20.54 29.1,20.54 34.24,63.33 17.12,94.14 -32.52,56.48 -102.7,73.6 -155.76,39.37 -89,-56.49 -136.94,-142.07 -219.1,-207.12 -75.31,-59.9 -143.78,-113 -222.52,-171.16 -49.64,-39.37 -107.83,-49.64 -164.32,-68.47 78.74,-5.14 145.49,44.5 222.52,54.77 47.93,6.85 114.68,-25.67 102.7,-73.6 -24,-90.72 -30.81,-179.73 -51.35,-268.73 -18.83,-77 -107.84,-118.11 -179.73,-147.21 -5.13,15.41 -5.13,30.81 -6,45.8 v 267.69 c 0,16.65 0,33 -1.07,48.58 -6.65,14.55 -18.63,28.25 -34,28.25 -119.81,8.55 -301.25,15.4 -311.52,166 -5.14,83.87 73.6,136.93 140.36,176.3 34.23,18.83 89,27.39 106.12,-13.69 24,-61.62 -46.22,-95.86 -82.16,-135.22 -20.54,-20.54 -18.83,-58.2 6.85,-70.18 97.56,-47.93 217.38,13.69 277.38,94 31.74,44.53 43.25,68.99 43.25,68.99 z"
       id="path472"
       style="display:none;fill:none;stroke:url(#linear-gradient-3);stroke-width:2px;stroke-miterlimit:10" />
    <path
       class="cls-4"
       d="m 1275.1597,2767.1414 c -20.8391,-23.6924 -57.3121,-21.9206 -63.5645,-48.3634 -47.9305,-170.9977 -130.2827,-377.3278 -257.38741,-317.3861 -20.84527,10.5792 -41.68437,40.5553 -37.51411,82.8722 6.24627,51.1343 33.36823,72.3338 47.92461,114.5683 4.17026,12.3611 0,28.2146 -8.33449,28.2146 -37.5141,-3.5333 -71.90508,-49.373 -86.49188,-105.7919 -14.61118,-51.1346 0,-109.3252 26.05046,-142.8242 61.48855,-77.5774 137.58822,-40.5552 206.33362,-33.499 8.3345,1.7614 17.71,-5.2946 24.6017,-14.9262 1.388,-16.008 1.388,-32.294 1.388,-48.8683 v -211.9031 c 3.1839,-16.9556 13.6066,-25.7527 24.0292,-25.7527 13.5457,1.7614 26.0505,17.6355 27.0915,42.3168 3.1292,84.6336 16.6749,163.9827 29.1796,248.6159 7.3057,51.1345 -34.3909,84.6336 -65.6527,74.0546 -48.9778,-17.6355 -90.656,-63.4752 -140.6809,-51.1346 a 214.66816,363.2257 0 0 1 117.7841,77.5566 c 42.7253,54.6678 77.1163,105.8023 122.9771,158.6981 16.6749,19.3867 29.1797,42.317 43.7664,66.957 38.5613,68.77 69.823,153.4034 127.1351,172.7901 25.0094,8.8177 46.8777,-17.6252 61.4888,-52.896 8.3345,-22.9198 12.5046,-51.1241 4.1642,-75.8158 -4.1642,-12.3612 -11.4577,-19.3969 -18.7572,-26.4429 -6.2523,-5.2947 -16.6689,0 -13.5457,14.1023 5.2115,24.7225 17.7159,49.3728 6.2524,75.8157 -30.2208,68.7699 -79.1986,21.1584 -107.3311,-22.9199 -33.3439,-52.8958 -60.4414,-107.5532 -97.9555,-155.1648 -41.6844,-54.6575 -82.3216,-96.9741 -122.9772,-155.1649 -10.4164,-15.8637 -22.9212,-28.2043 -34.3848,-42.3168 23.9684,8.8177 45.8486,35.271 68.7941,31.7376 48.9777,-8.8074 104.2079,-21.1584 135.4697,-100.4972 5.2112,-12.3611 -1.0472,-28.2146 -8.3406,-37.0321 -2.0822,-1.7616 -5.2112,1.7716 -6.2523,3.5331 -7.3056,28.2043 -21.8802,82.8722 -35.4259,59.9419 -13.5519,-21.1585 -17.7161,-61.7034 -26.0566,-95.2127 -11.4576,-40.545 -12.5048,-84.6334 -13.5457,-128.7633 -1.0412,-86.395 36.473,-190.4252 -9.3756,-255.662 -4.1703,-5.2948 -5.2112,24.7226 -3.1292,38.7836 9.3816,74.0645 7.3056,141.0627 0,213.3555 14.6111,-114.6097 -32.3027,-202.7766 -73.9871,-285.6382 -56.2712,-112.8481 -57.3122,-264.4901 -55.2302,-402.0194 1.0471,-105.7919 58.3594,-165.7441 96.9146,-239.7984 22.9272,-42.3168 -5.2114,-98.7358 -2.0823,-149.8702 1.0412,-12.3612 5.2114,-24.7225 11.4638,-28.2144 28.1326,-19.38678 56.2712,-38.78356 75.0283,-79.31835 16.6689,-33.49901 10.4164,-77.57723 0,-112.84807 -12.5047,-40.55527 -40.6435,-72.29283 -64.6118,-44.07823 -20.8391,24.72254 -35.4319,58.19068 -52.1009,95.21268 -11.4637,24.72256 -32.3028,33.49906 -50.0187,24.72256 -7.3057,-1.76147 -14.6112,-12.36129 -14.6112,-26.44283 -2.082,-47.61149 14.6112,-88.16677 18.7571,-134.00648 1.047,-10.57919 1.047,-22.91987 -1.0412,-33.49905 -25.0093,-123.4273 -46.8773,-273.29743 4.1703,-386.14554 16.675,-38.79381 47.9368,-51.13448 60.4414,-91.67945 37.5141,-126.95026 -18.757,-255.662019 -52.1069,-370.27161 31.2617,-1.7615 72.9461,-12.36127 86.4918,17.63541 43.7665,107.553371 85.451,273.29743 29.1797,377.32785 -52.1435,96.99477 -119.8722,190.446 -104.2383,338.55464 6.2524,54.65742 -2.0821,118.13256 14.6112,153.4034 10.4226,22.91985 35.4319,-40.55528 57.3183,-58.1907 21.8801,-19.3969 46.8774,-22.91986 65.6466,5.29475 27.0976,42.31674 45.8546,100.49714 45.8546,160.44931 1.0411,128.76331 -7.3054,276.82041 -57.3182,372.03311 -29.1736,56.4292 -79.1925,81.1106 -103.1607,151.6419 -23.9685,70.5315 -28.1388,151.6316 -28.1388,230.9806 0,56.419 8.3405,155.1649 43.7665,155.1649 14.6111,-1.7718 20.8453,-75.8261 42.7255,-58.1907 45.8546,37.022 46.8773,155.1651 44.8075,234.5037 -3.1232,86.4051 -48.9718,262.6771 21.9167,275.0383 14.611,3.5228 38.555,-49.373 46.8773,-5.2947 7.3057,38.7938 16.6689,89.9282 -2.088,119.8939 -47.9369,82.8721 -125.0472,126.9607 -190.6998,75.8262 41.6844,56.419 80.2393,112.8378 127.1352,163.9723 37.5141,40.5553 62.5235,96.9742 94.8262,148.1086 30.2208,45.85 81.2806,119.9044 114.6306,49.3731 13.5457,-28.2148 -7.3055,-49.3731 -17.716,-74.0544 -1.0411,-3.5229 -3.1293,-10.5792 -2.0881,-12.3614 13.5517,-14.1123 29.1796,-26.453 43.7725,-10.5791 14.5929,15.874 18.757,45.8397 16.6688,74.0543 -3.1231,37.0221 -17.716,66.9569 -37.5141,82.872 -48.9777,37.0222 -91.7032,-35.2708 -121.9178,-91.6795 -29.1797,-51.1344 -53.148,-102.2688 -86.492,-144.5855 -44.8135,-56.4189 -81.2866,-109.3149 -126.0942,-165.7441 -36.473,-44.0782 -76.0996,-58.1804 -117.75349,-70.521 42.72529,-7.0563 83.36879,17.6251 124.00599,40.5552 11.4636,7.0459 21.9167,15.8637 33.3499,15.8637 -60.4415,-24.7226 -118.7947,-75.816 -182.36538,-56.4189 27.09757,5.2843 55.23018,14.1021 82.32778,21.1584 -42.7255,-12.3614 -91.70322,-28.2147 -130.28268,15.8636 100.03758,-75.8157 204.23938,38.7939 269.89218,170.9976 14.611,28.2044 32.3028,47.6011 46.8773,75.8158 15.6279,31.7374 27.0916,65.2365 33.5387,102.238 2.3257,18.3153 2.9343,27.3184 2.9343,27.3184 z"
       id="path474"
       style="display:inline;fill:none;stroke:url(#linearGradient523);stroke-width:1.53235px;stroke-miterlimit:10" />
    <path
       class="cls-5"
       d="m 1539.23,2791.38 c 24.11,60.79 17.26,132.68 -25.53,187.45 a 213.31,213.31 0 0 1 -184.86,75.31 c 29.1,-12 8.56,-35.94 -1.71,-54.77 85.58,20.54 183.15,-47.93 178,-138.65 -6.85,-92.43 -94.14,-124.95 -179.73,-107.83 -20.54,5.13 -42.79,-1.71 -63.33,-5.14 -12,0 -32.52,0 -32.52,3.43 12,63.33 90.72,85.58 131.8,136.93 5.13,6.85 15.4,18.83 12,22.25 -42.79,30.81 -94.14,-8.56 -130.09,-37.65 -56.48,-47.93 -99.27,-97.57 -157.47,-143.79 -73.6,-54.77 -150.63,-92.43 -208.83,-160.89 29.1,1.71 56.49,17.11 85.59,12 83.87,-13.7 184.86,-30.81 224.23,-113 25.67,-54.78 30.81,-131.8 -10.27,-181.44 -10.27,-13.69 -32.52,0 -49.64,0 -59.91,0 -53.06,-82.16 -46.22,-123.24 18.83,-119.82 10.27,-237.92 -29.09,-350.9 -15.41,-44.5 -68.47,-34.23 -107.84,-37.65 -32.52,-1.71 -34.23,-44.51 -29.1,-70.18 18.83,-75.32 47.93,-147.21 111.26,-196.84 42.79,-32.53 107.84,-34.24 130.09,-77 92.43,-174.59 101,-393.69 -15.41,-571.7 -44.5,-68.47 -123.24,-49.64 -179.72,-78.74 -58.2,-30.81 -15.41,-118.1 17.11,-166 39.37,-56.49 111.26,-63.33 147.21,-114.68 85.58,-119.82 0,-261.89 -30.81,-388.56 46.21,0 94.14,-10.27 135.22,3.43 5.14,1.71 3.42,24 6.85,37.66 30.81,118.1 70.18,234.5 44.33,354.46 -2.58,15.07 -5.07,30.42 -7.36,46 -2.29,15.58 -10.53,26.3 -24.44,32.54 -27.95,6.81 -55.33,18.81 -77.59,37.66 -25.67,24 -22.25,58.19 -1.71,85.58 172.88,243.06 190,546 71.89,797.64 -22.25,47.93 -123.24,71.93 -109.54,145.5 5.14,25.67 17.12,47.92 18.83,73.6 10.27,104.41 -3.42,205.4 18.83,311.52 5.14,17.12 5.14,34.24 3.43,51.35 -3.43,32.53 -18.83,78.74 17.11,92.44 30.81,12 70.18,20.54 75.32,54.77 13.69,85.58 6.84,178 -47.93,243.06 -71.89,82.16 -186.57,101 -289.28,119.82 5.14,15.4 18.83,25.67 30.82,35.94 59.9,46.22 121.52,78.74 181.43,126.66 6.85,6.85 17.12,13.7 27.39,15.41 -37.66,-46.22 -89,-75.31 -126.66,-126.66 -5.14,-8.56 -1.72,-18.83 8.55,-22.26 17.12,-1.71 34.24,0 49.64,8.56 104.42,61.62 212.25,78.74 328.65,87.3 25.67,3.42 51.35,17.11 74.72,32.41 24.57,21.7 36.38,36.89 36.38,36.89 z"
       id="path476"
       style="display:none;fill:none;stroke:url(#linear-gradient-5);stroke-width:2px;stroke-miterlimit:10" />
    <path
       class="cls-6"
       d="m 1443.65,2621.53 c -20.67,6.41 -44.63,6.41 -54.9,25.23 -5.14,8.56 1.71,17.12 8.56,24 -63.34,-8.56 -128.38,-1.71 -188.29,-27.39 -20.54,-10.27 -15.4,-46.21 -22.25,-53.06 -39.37,-46.22 -107.84,12 -166,0 94.14,-41.08 224.23,-56.49 263.59,-166 17.12,-46.22 32.53,-92.44 47.93,-138.65 13.69,-41.08 36,-97.57 -5.13,-124.95 -97.57,-66.76 -83.88,-179.73 -95.86,-275.58 -10.27,-75.32 25.68,-154 78.74,-214 20.54,-22.26 32.52,-58.2 44.32,-90.81 0.17,-20.44 0.17,-41.12 0.17,-61.79 V 1394.6 c 15.42,-112 32.53,-221.59 15.42,-336.27 -18.83,-123.25 -70.18,-258.47 -25.29,-375.64 5.49,-7.71 10.18,-17.61 9.87,-34.17 V 552 c 10.26,-20.1 12.45,-36.48 15,-52.81 21,-122.09 -9.81,-238.49 -35.49,-360 -3.42,-13.69 -8.56,-34.23 -3.42,-37.65 44.5,-17.12 95.85,-8.56 145.49,-8.56 10.27,135.22 34.24,270.44 17.71,408.07 -1.15,16.23 -2,32.44 -4.61,51 v 1213.41 c -1.12,8.35 -1.12,16.91 -8,22 -104.42,94.14 -90.72,256.75 -3.43,359.45 8.56,10.27 18.83,24 13.7,37.66 -34.24,89 -130.09,157.47 -121.53,256.75 1.71,25.68 37.66,39.37 42.79,68.47 5.14,25.67 -25.68,39.37 -27.39,65 -1.71,15.41 13.7,25.68 25.87,32 20.35,8.86 32.43,14.74 32.43,14.74 z"
       id="path478"
       style="display:none;fill:none;stroke:url(#linear-gradient-6);stroke-width:2px;stroke-miterlimit:10" />
  </g>
</svg>
